<svg version="1.1" id="Layer_1" xmlns="http://www.w3.org/2000/svg" xmlns:xlink="http://www.w3.org/1999/xlink" x="0px" y="0px"
	 width="100%" viewBox="0 0 1024 208" enable-background="new 0 0 1024 208" xml:space="preserve">
<path fill="#000000" opacity="1.000000" stroke="none" 
	d="
M287.468536,209.000000 
	C278.663696,206.821274 270.037201,205.919525 261.926056,202.698120 
	C228.264633,189.329178 207.056442,164.842560 199.015808,129.848694 
	C192.968948,103.532104 195.987549,77.763878 210.095322,54.124699 
	C225.528992,28.263813 248.033554,11.729440 277.728882,6.373534 
	C334.668091,-3.896120 384.085144,29.643660 396.821228,84.482414 
	C410.893585,145.075073 368.169098,201.033539 310.573181,208.078964 
	C309.922607,208.158539 309.295197,208.427139 308.328491,208.803757 
	C301.312347,209.000000 294.624725,209.000000 287.468536,209.000000 
M214.101227,88.496895 
	C212.675995,97.879539 212.033020,107.191101 212.995758,116.772057 
	C215.359299,140.293594 226.251678,158.980957 243.651794,174.346481 
	C269.237457,196.940369 310.408966,198.756699 338.298401,182.828400 
	C362.687531,168.899185 377.729767,148.023758 382.499542,120.106461 
	C383.516754,114.152847 382.747406,113.266899 376.942230,113.262978 
	C359.609619,113.251259 342.277039,113.251083 324.944458,113.275116 
	C322.918518,113.277924 320.814117,113.048401 318.452881,114.177132 
	C326.516937,121.126541 332.549500,129.036850 337.813873,137.577927 
	C341.864441,144.149704 341.879333,144.117737 335.112091,148.092102 
	C333.535858,149.017792 332.053619,150.103104 330.524170,151.108963 
	C328.261963,152.596756 326.566498,152.148682 325.136719,149.798645 
	C323.146057,146.526688 321.106689,143.268417 318.855255,140.173721 
	C307.332886,124.335785 291.755920,116.054764 272.169556,115.189674 
	C268.456543,115.025673 267.126343,116.396599 267.254761,120.091263 
	C267.468811,126.250214 267.364960,132.422653 267.298584,138.588348 
	C267.189850,148.683838 268.950348,148.319778 257.662018,148.207886 
	C250.820526,148.140060 250.786850,148.099075 250.788742,141.099365 
	C250.794647,119.266922 250.802277,97.434479 250.805206,75.602036 
	C250.806854,63.392925 250.803436,63.524227 262.827820,63.510395 
	C266.375977,63.506313 267.468292,64.668915 267.384186,68.114456 
	C267.193176,75.942780 267.333679,83.778976 267.318420,91.611938 
	C267.314270,93.751495 267.451813,95.796005 270.331818,95.730888 
	C275.304321,95.618454 280.272736,96.111565 285.209229,94.644577 
	C300.429047,90.121696 311.862701,80.711967 320.903595,67.938240 
	C323.005920,64.967911 323.594604,60.071758 326.952118,59.156437 
	C330.573944,58.169056 333.470978,62.525230 337.065063,63.779682 
	C341.207275,65.225441 341.766602,67.349304 339.324158,71.259537 
	C333.654175,80.336899 327.047119,88.578430 317.987305,96.643059 
	C339.498688,96.643059 359.612427,96.646881 379.726166,96.638519 
	C382.421997,96.637398 382.640869,94.890862 382.196686,92.863419 
	C381.413818,89.289963 380.749847,85.672211 379.677551,82.183197 
	C366.989349,40.898060 326.284180,12.388019 279.166016,21.984512 
	C247.132996,28.508633 220.033081,55.422825 214.101227,88.496895 
z"/>
<path fill="#000000" opacity="1.000000" stroke="none" 
	d="
M630.188599,121.317245 
	C627.588318,121.454636 625.402283,120.952522 622.751099,122.029503 
	C623.150696,127.049362 625.884949,130.878754 629.463745,134.106567 
	C641.074524,144.578613 661.556091,143.137070 671.729858,131.247925 
	C674.296143,128.248901 679.034546,127.633171 686.691162,129.342636 
	C687.714600,132.154388 685.700073,134.063522 684.365784,135.989731 
	C675.042786,149.447647 661.651489,153.201889 646.021362,152.542694 
	C631.170593,151.916351 619.145996,146.281631 612.428223,132.980667 
	C600.769775,109.897552 614.448730,83.902443 642.192383,80.751534 
	C655.168335,79.277824 667.461731,81.089882 677.612671,90.345016 
	C684.703979,96.810547 688.633545,104.845299 689.115967,114.452888 
	C689.432922,120.765862 688.820740,121.309196 682.595215,121.308426 
	C665.282227,121.306297 647.969299,121.313156 630.188599,121.317245 
M664.849976,96.586540 
	C648.645325,86.226181 625.309631,94.660706 623.818726,108.831688 
	C628.220764,110.235939 670.260315,110.138077 674.268616,108.652496 
	C672.668945,103.736458 669.804810,99.816139 664.849976,96.586540 
z"/>
<path fill="#000000" opacity="1.000000" stroke="none" 
	d="
M583.659241,147.835999 
	C567.967651,154.758453 552.648621,155.338120 537.880310,146.675400 
	C525.753296,139.561920 518.965149,124.854919 521.020081,111.821648 
	C523.286926,97.443504 534.314026,84.964661 548.393494,81.926476 
	C564.813904,78.383110 580.273499,79.890366 592.674133,92.964813 
	C599.224121,99.870705 601.972839,108.104118 601.470398,117.612190 
	C601.273987,121.328087 599.165466,121.348114 596.460693,121.341835 
	C578.298096,121.299622 560.135315,121.322334 541.972595,121.325798 
	C540.806335,121.326027 539.639893,121.330093 538.473877,121.351593 
	C535.308167,121.409973 534.809509,122.997856 535.989502,125.620811 
	C537.930298,129.934982 540.385437,133.751312 544.462585,136.479660 
	C556.197083,144.332047 574.501282,142.219559 583.702515,131.562134 
	C588.275452,126.265465 593.816101,129.636353 599.804810,128.521332 
	C597.246094,138.059280 591.188416,143.321960 583.659241,147.835999 
M549.512451,109.761238 
	C561.907532,109.761238 574.302612,109.761238 586.851379,109.761238 
	C584.453247,98.542953 574.108398,91.878044 560.565491,92.139511 
	C547.822021,92.385559 538.009094,99.223541 536.180908,109.320641 
	C540.268738,110.289024 544.421448,109.523270 549.512451,109.761238 
z"/>
<path fill="#000000" opacity="1.000000" stroke="none" 
	d="
M463.170959,78.001778 
	C463.174164,89.140991 463.174164,99.780510 463.174164,110.417961 
	C465.535339,110.853226 466.575134,109.321342 467.818909,108.371956 
	C476.558319,101.701012 485.423950,95.179344 493.904999,88.192093 
	C498.804260,84.155724 503.863342,81.842491 510.284637,82.666214 
	C513.634521,83.095924 517.121887,82.247650 521.952087,83.562378 
	C508.739319,93.903397 496.539154,103.451881 483.538300,113.627022 
	C497.382538,125.450180 510.666260,136.794693 523.950012,148.139206 
	C523.724304,148.688232 523.498657,149.237259 523.272949,149.786301 
	C515.486816,149.171539 507.409607,152.751251 500.092285,145.992020 
	C492.145172,138.651108 483.684784,131.864075 475.405762,124.885864 
	C473.837769,123.564224 472.288239,121.171501 469.875702,122.917099 
	C467.186768,124.862694 463.216858,125.835526 463.197144,130.261505 
	C463.175598,135.093399 463.018280,139.930862 463.198395,144.755508 
	C463.341187,148.579407 461.890167,150.421051 457.977600,150.101913 
	C457.150208,150.034424 456.312225,150.100403 455.479126,150.099487 
	C448.837006,150.092133 448.682770,149.928375 448.685303,143.482956 
	C448.695312,117.989700 448.669189,92.496368 448.749969,67.003357 
	C448.756714,64.878304 447.582031,61.682182 450.712067,61.034389 
	C454.399597,60.271214 458.359558,59.977509 462.020630,61.377945 
	C463.299225,61.867008 463.150970,63.672646 463.157654,65.005569 
	C463.178589,69.170982 463.166840,73.336563 463.170959,78.001778 
z"/>
<path fill="#000000" opacity="1.000000" stroke="none" 
	d="
M713.380981,103.802170 
	C713.382629,106.402092 713.382629,108.536530 713.382629,110.437057 
	C715.278381,111.513649 715.969299,110.207588 716.792908,109.569817 
	C726.138184,102.333275 735.572388,95.203323 744.721375,87.725021 
	C749.212219,84.054192 753.852295,81.914970 759.741638,82.669350 
	C763.120056,83.102097 766.618530,82.232552 771.497925,83.582939 
	C758.659119,93.791389 746.691772,103.306915 733.911865,113.468491 
	C747.578125,125.270691 760.801697,136.690521 774.186768,148.249863 
	C768.253296,151.542496 756.186584,150.505081 751.764709,146.722244 
	C743.289062,139.471466 734.841858,132.186356 726.283081,125.034843 
	C724.672668,123.689209 723.145996,120.518921 720.555054,122.574768 
	C717.735046,124.812408 713.374756,125.986931 713.420715,130.843033 
	C713.466431,135.671432 713.241089,140.506912 713.427185,145.327972 
	C713.562317,148.827362 712.138367,150.225769 708.741760,149.963913 
	C707.418274,149.861877 706.073914,149.892593 704.747864,149.986938 
	C700.828430,150.265778 699.614929,148.429947 699.632446,144.611511 
	C699.752502,118.468239 699.758972,92.323845 699.630066,66.180664 
	C699.610107,62.134624 700.833252,60.214828 705.041260,60.675392 
	C706.522705,60.837540 708.042908,60.805939 709.533081,60.696045 
	C712.632446,60.467480 713.482056,61.903198 713.450439,64.871826 
	C713.313660,77.692238 713.384277,90.514862 713.380981,103.802170 
z"/>
<path fill="#000000" opacity="1.000000" stroke="none" 
	d="
M833.525757,105.103653 
	C835.999878,108.172585 834.960754,111.404190 834.901367,114.486671 
	C834.855957,116.846237 833.064880,117.382301 831.032776,117.380188 
	C812.884888,117.361343 794.737000,117.327057 776.589233,117.358452 
	C773.891846,117.363113 772.815552,116.328705 772.644348,113.550888 
	C772.124084,105.107635 772.366821,104.712059 780.672668,104.734650 
	C798.150208,104.782204 815.627808,104.851051 833.525757,105.103653 
z"/>
</svg>